<?xml version="1.0" encoding="utf-8"?><!-- Uploaded to: SVG Repo, www.svgrepo.com, Generator: SVG Repo Mixer Tools -->
<svg version="1.1" id="Uploaded to svgrepo.com" xmlns="http://www.w3.org/2000/svg" xmlns:xlink="http://www.w3.org/1999/xlink" 
	 width="800px" height="800px" viewBox="0 0 32 32" xml:space="preserve">
<path fill="#ffffff" class="feather_een" d="M16,6C6.177,6,1.715,13.371,0.419,16.045c-0.294,0.607-0.258,1.316,0.094,1.892
	C1.922,20.242,6.402,26,16,26s14.078-5.758,15.487-8.063c0.352-0.576,0.388-1.285,0.094-1.892C30.285,13.371,25.823,6,16,6z
	 M20.984,7.754C22.903,9.285,24,11.552,24,14c0,4.411-3.589,8-8,8s-8-3.589-8-8c0-2.446,1.096-4.711,3.012-6.242
	c0.446-0.144,0.913-0.264,1.394-0.37c0.141-0.031,0.285-0.055,0.428-0.082c0.355-0.068,0.718-0.125,1.092-0.171
	c0.16-0.019,0.32-0.039,0.482-0.054c0.283-0.026,0.581-0.032,0.874-0.044C11.753,7.397,9,10.377,9,14c0,3.866,3.134,7,7,7
	c3.866,0,7-3.134,7-7c0-3.792-3.017-6.872-6.78-6.989c0.465,0.006,0.917,0.029,1.356,0.068c0.195,0.018,0.387,0.041,0.58,0.065
	c0.294,0.036,0.579,0.083,0.862,0.133c0.237,0.043,0.476,0.082,0.71,0.136c0.145,0.033,0.282,0.075,0.424,0.112
	C20.43,7.597,20.711,7.667,20.984,7.754z M22,14c0,3.308-2.692,6-6,6s-6-2.692-6-6s2.692-6,6-6S22,10.692,22,14z M16,25
	c-9.181,0-13.359-5.452-14.64-7.58c-0.172-0.286-0.187-0.635-0.04-0.935c0.831-1.7,3.093-5.521,7.408-7.759
	c-1.245,1.706-1.914,3.858-1.682,6.183c0.415,4.173,3.788,7.589,7.957,8.037C20.42,23.529,25,19.299,25,14
	c0-2.001-0.666-3.836-1.774-5.326c4.389,2.227,6.641,6.088,7.464,7.81c0.143,0.298,0.127,0.642-0.044,0.926
	C29.37,19.534,25.194,25,16,25z M16,19c2.761,0,5-2.239,5-5s-2.239-5-5-5s-5,2.239-5,5S13.239,19,16,19z M16,10c2.206,0,4,1.794,4,4
	s-1.794,4-4,4s-4-1.794-4-4S13.794,10,16,10z M16,17c1.657,0,3-1.343,3-3s-1.343-3-3-3s-3,1.343-3,3S14.343,17,16,17z M16,12
	c1.103,0,2,0.897,2,2s-0.897,2-2,2s-2-0.897-2-2S14.897,12,16,12z"/>
</svg>